/* XPM */
static char *fish_xpm[] = {
/* columns rows colors chars-per-pixel */
"80 80 16 1",
"  c #060600",
". s None c None",
"X c #7F0000",
"o c #323331",
"O c #323D19",
"+ c #617030",
"@ c #656664",
"# c #72803E",
"$ c #88943C",
"% c #A1A3A0",
"& c #C7CA2D",
"* c #C1D076",
"= c #C0E06C",
"- c #CCCECB",
"; c #C9FF67",
": c #FAFCF9",
/* pixels */
"======;=======;==+ +=;;;=;=;=;;;=$ . +=;;;;=  ..................................",
"===;===;===;===# O=;;==;;==;;;=;;;#O$;;;;;;;=  .................................",
"=====;===;===;$ $;;==;;==;;==;;=;;;=;;;;;;;;;$ .................................",
"==*======*==;= $;=;=;==;;=;;;=;;;;;;;;;;;;;;=$  ................................",
"====*=====;=== ===;==;===;;;=$#+++#==;=;;;$O oooooo ............................",
"=============$ ;===;;==;;===#  @@@@ O=;;;# %:-:::::%O ..........................",
"=====*===;===*O==;===;;==;$ o%:-::::@ $== %--::-:::::@ .........................",
"*========*==;#O=;===;===;Oo%:-:-:::::%O+o@--:-::::::::@ ........................",
"*=*===*======*O*===*==;=OO----:::::::::O ---:::::::::::o .......................",
"============*$O====;==*+o-:-:-:::::::::-O--:-::%   %:::- .......................",
"===*======*==; ==;===;# ---:-:::::::::::oo---:-O  @:::::o ......................",
"=*===========*======;$ %--:-::::::::::::: %:::%O:-%:-:::% ......................",
"*===*=*=*=======*=;==O@----:-::::%oo@::::%o--:o %@ o -::% ......................",
"==*================;= %-----::::@   %::::: %:-o      :::% ......................",
"**=*===*=========;*=#o---:-:-::- O-o--@:::@@-:@      ::-- ......................",
"=*===*=*====*=======o@%---:-:-:% o%O   -::- --%     o-:-% ......................",
"*=*=*===*=*=========O%-----:-::o       %::: %--o   O%-:-@.......................",
"=**=*=*=*=*===*====; %%----:-:-o       %::-o%---@oo-:--%   .....................",
"*==**==*===*=======* %%%-----::o       @:::@@---------% $+  ....................",
"=***=*==============o@%%----:--@       %::-@@%%%----%@ $;;$  ...................",
"*===***=*===*=*==*==O@%-%------%       ---:@o@@@@@@o +=;;;;$ ...................",
"***===*==**========**.%%%-%-----o     @-:-- +++##++$=;;;;;;;= ..................",
"*=**-==*===*===*====* %%%%-%--:--o   @:---@ ;;;*;;=;;;;;;;;;;+ .................",
"=*=*=**=**=*=*=======#.%%%%--%----%%-----% $;;;;;;;;;;;;;;;;;;O   ..............",
"***=**==*=*=*===*=*==*o@%%%%%%--%-------%OO;=;;;=;;;;;;;;;;;;;=      ...........",
"***===*===*===*=======$.@%%%%%%%-%%--%%-oO*;;;;;;;;;;;;;;;;;;;;; O=#O  .........",
"*=****=**==*===*==*==;=$ o%%%%%%%%-%%-%oO=;=;;;;;;;;;;;;;;;;;;;;$ &&&$  ........",
"=*=-==*=**=============**+ .@@%%%%%%@o +==;;;;;;;;;;;;;;;;;;;;;;;O+&&&=  .......",
"**=**=***=*=*=*=*=======**=$O .      +=;=;;;=;=;;;;;;;;;;;;;;;;;= +&&&&$ .......",
"=**===*===*================;;==;;==;;;=;;;=;;;;;;;;;;;;;;;;;;;;;OO&&&&&&O ......",
"*=****=***=*===*=*===*===;=*=;===;;==;;=;;;*;;;=;;;;;;;;;;;;;;= O&&&&&&&O.......",
"****=***=*===*==============;===;=;=;==;;=;;;=;;;;;;;;;;;;;;;$ +&&&&&&&&+ ......",
"****% O#*=*=*===*=*===;=======;====;=;;;=;=;=;;;=;;;;;;;;;;$O $&&&&&&&&&O ......",
"-**= **===**===============;===;;*=;;;=;;;=;;;;;;;;;;;;;;$O +&&&&&&&&&&# .......",
"*==++==***=*===*=*===*=*=;==*;;==;;==;;==;;=;;;;;;;;;;=#  #&&&&&&&&&&&+ ........",
"=*= ***#**===*==============;===;=;*;==;;=;;;;;;;;=$#  O$&&&&&&&&&&&& o% .......",
"***#**=   +**=*=*=========;======;;==;=;=;;;=;=$#O  #&&&&&&&&&&&&&&+ O::% ......",
"=**===*OO$o O#*==*=========;;*=;;==;;;=;=$##O  O+&&&&&&&&&&&&&&&&# O-o@::O......",
"*=**-==#  O=+O  #**===*==;===;====$##+O  O#+$&&&&&&&&&&&&&&&&&&# O -::o@:% .....",
"**=*=***  X +&=#+   o+#+#+#+#OO   OO+#&&&&&&&&&&&&&&&&&&&&&&&+oO%:% -:: -- .....",
"******==   XX O&&=&=#+++++#++$&&&&&&&&&&&&&&&&&&&&&&&&&&&&+   o::::% ::%o% .....",
"=-*==**=+O XXXX O$&&&=&&=&&&&&&&&&&&&&&&&&&&&&&&&&&&&&$#O @%:%O@::::@o::  ......",
"*==***=*$ # XXXXX  O&&&&&&&&&&&&&&&&&&&&&&&&&&&&&&&+o    %::::-o@::::o%:@.......",
"=*=*=**== $OXXXXXXo%o O&&&&&&&&&&&&&&&&&&&&&&#O .ooo XXX :::::::@@:::%o:% ......",
"*=*****=*$O& XXXX -::-o   #+$&$$$&&&$+#OO    X  ::::% XXo::::::::o%::: %  ......",
"*=-===*==* $#OXXX@::::%o:-%@oO ooooo  o%--:% X @:::::- X@::::::::: -::@OO ......",
"*==**==*==$ &OXX %::::o%:::::o%:::::O ::::::@X -::::::- %:::::::::%o::@%- ......",
"=*=****==*= +& X -:::- :::::%O::::::o%::::::- o::::::::%@::::::::::O%o@::  .....",
"*=*=*===*=*$ &$  -:::-o:::::@%:::::-O::::::::@@:::::::::o-:::::::::%O% -:o .....",
"=**===*===*=OO&O  O%%@o::::: -:::::@@::::::::@%:::::::::-@:::::::::-O:@@:o .....",
"**=*=*=*====* && XXX  o::::-O::::::O-::::::::o-::::::::::O:::::::::%o:: -O......",
"=*===*=======$ && XXO@o::::-o:::::: :::::::::o-::::::::::@%:::::::%o:::@@ ......",
"*===*=*=*=====+O&$  %:@ O%%@o:::::- :::::::::@%::::::::::%@:::::%oO@:::%    ....",
"=**======*=====++&+ %::@    o:::::-o:::::::::%@::::::::::@ oooo @-: -::- &#  ...",
"===*==**====*=== &&Oo:- %---O%::::: :::::::::-O::::::::-oo-----::::@%::% $&& ...",
"=*===*==========* &&Oo-o::::%  @%%% -::::::::- o@%---%o   %::::::::%@::- O&&&  .",
"***=*===*=*===;==$O&&  o:::%o%%@o  oO @%%-%%@  %@oooo@%::%o::::::::-O::% O&&&+ .",
"==*===============#O&&  :::@%:::%@:::%o     @-O::::::::::: ::::::::: ::@ O&&&& .",
"=========*===;===;=OO&& o::o-:::%%::::-o:::::-o::::::::::: ::::::::: oo  $&&&&+ ",
"=====*====*==*===*;=#O&&Oo:@%:::%%::::-o:::::: ::::::::::-o:::::::::    +&&&&&+.",
"*=========;=======;=*O#&&OO @:::%%::::%o:::::: -:::::::::% -:::::::- X $&&&&&&$ ",
"===============;===;;=O#&&+  -::%@::::-O::::::o%:::::::::@ O:::::::@ O&&&&&&&&$ ",
"*=*======;===;*==;===;= #&&# o::% ::::: ::::::%o::::::::: XX -:::%o $&&&&&&&&&+ ",
"O==*===*==*=;===;=;=;===+#&&&OOo  %::::o%:::::: -:::::::% XXX @@ O&&&&&&&&&&&&O.",
"O *==*;=======;======;;==+#&&&#  X ::::%O::::::@o::::::: XXXX  +&&&&&&&&&&&&&& .",
"=$ #=======;===;;==;;==;;=O#&&&&O  o:::  %:::::o %:::::@ X  +&&&&&&&&&&&&&&&&+ .",
"&&= O====;*==;;*=;;==;;==;;+O&&&&&O Oo XX -:::@ X %::%@  O#&&&&&&&&&&&&&&&&&# ..",
"&&&=O ==;=;=;===;=;=;==;;=;;$O&&&&&&+  XXX %-@ XXX O  +&&&&&&&&&&&&&&&&&&&&& ...",
"&&&&&# $==;==;=*=;;==;=;=;;;=$O&&&&&&&$+O        ++#&&&&&&&&&&&&&&&&&&&&&&# ....",
"&&&&=&$ O==;;==;;*=;;;=;;;=;;;#O$&&&&&&&&&&&&&&&&&&&&&&&&&&&&&&&&&&&&&&&&O .....",
"&&&&&&&&O $==;;==;;==;;=;;;=;;;=+O&&&&&&&&&&&&&&&&&&&&&&&&&&&&&&&&&&&&*O .......",
"&&&&&&&&&$ O*==;;=;=;==;;=;;;=;;;# o&&&&&&&&&&&&&&&&&&&&&&&&&&&&&*&&$O  ........",
"&&&&&&&&&&&O +;==;=;=;;;=;=;*;;;=;=#  #&&&&&&&&&&&&&&&&&&&&&&&&&&&o  ...........",
"&&&&&&&&&&$ .  #===;;;=;;;=;;;;;;;;;;=O OO$&&&&&&&&&&&&&&&&*&&#OO  .............",
"&&&&&&&&&& ....  #$=;;;=;;;=;;;;;;;;=$+   .  O##$&*$$&*$$$#O  . ................",
"&&&&&&&&&  ......   o#=;;;;;;;;=$#+O   ....... .           .....................",
"&&&&=&&# ...........              ..............................................",
"&&&&&&O ........................................................................",
"&&&#O ..........................................................................",
"O   ............................................................................"
};
